<svg xmlns="http://www.w3.org/2000/svg" viewBox="0 0 64 64" role="img" aria-label="JewelFlow">
  <defs>
    <linearGradient id="tile" x1="8" y1="5" x2="56" y2="60" gradientUnits="userSpaceOnUse">
      <stop offset="0" stop-color="#1b2742"/>
      <stop offset="0.52" stop-color="#0b1220"/>
      <stop offset="1" stop-color="#050814"/>
    </linearGradient>
    <linearGradient id="gold" x1="18" y1="13" x2="47" y2="45" gradientUnits="userSpaceOnUse">
      <stop offset="0" stop-color="#fff3b0"/>
      <stop offset="0.36" stop-color="#f7c948"/>
      <stop offset="0.74" stop-color="#d99218"/>
      <stop offset="1" stop-color="#8f5c0b"/>
    </linearGradient>
    <linearGradient id="shine" x1="22" y1="16" x2="39" y2="34" gradientUnits="userSpaceOnUse">
      <stop offset="0" stop-color="#ffffff" stop-opacity="0.92"/>
      <stop offset="1" stop-color="#ffffff" stop-opacity="0"/>
    </linearGradient>
    <filter id="shadow" x="-20%" y="-20%" width="140%" height="140%">
      <feDropShadow dx="0" dy="4" stdDeviation="5" flood-color="#000000" flood-opacity="0.35"/>
    </filter>
  </defs>

  <rect width="64" height="64" rx="16" fill="url(#tile)"/>
  <path d="M14 48C22 58 43 58 51 46" fill="none" stroke="#f6c44f" stroke-width="1.4" stroke-linecap="round" opacity="0.34"/>
  <path d="M15 22 24 12h16l9 10-17 25L15 22Z" fill="url(#gold)" filter="url(#shadow)"/>
  <path d="M15 22h34M24 12l8 10 8-10M24 12l-2 10 10 25M40 12l2 10-10 25M22 22h20" fill="none" stroke="#5a3805" stroke-width="1.2" stroke-linejoin="round" opacity="0.52"/>
  <path d="M18 21 25 14h6L22 22h-4Z" fill="url(#shine)" opacity="0.9"/>
  <text x="32" y="42" text-anchor="middle" font-family="Plus Jakarta Sans, Inter, Arial, sans-serif" font-size="17" font-weight="900" letter-spacing="-1.8" fill="#fff7d6">JF</text>
  <circle cx="48" cy="15" r="2.2" fill="#fff1a8"/>
  <circle cx="52" cy="19" r="1.1" fill="#f7c948" opacity="0.8"/>
</svg>
